# xmcd CD database file
#
# Track frame offsets:
#	150
#	19962
#	42728
#	59670
#	79644
#	98343
#	117935
#	139437
#
# Disc length: 2128 seconds
#
# Revision: 0
# Processed by: cddbd v1.5.1PL0 Copyright (c) Steve Scherf et al.
# Submitted via: CDex 1.51
#
DISCID=6d084e08
DTITLE=PE'Z - つくしんぼ
DYEAR=2005
DGENRE=Jazz
TTITLE0=WILD GYPSY 〜明日は明日の風が吹く〜
TTITLE1=春疾風　〜ハルハヤテ〜
TTITLE2=POP'N ROLL
TTITLE3=NO.6
TTITLE4=ピエロ
TTITLE5=AUCTION #2
TTITLE6=NA!NA!NA! 〜ヌルピョン太の大冒険〜
TTITLE7=情熱の行方(TSU KU SHI N BOW Ver.)
EXTD=YEAR: 2005
EXTT0=
EXTT1=
EXTT2=
EXTT3=
EXTT4=
EXTT5=
EXTT6=
EXTT7=
PLAYORDER=
